<?xml version="1.0" encoding="UTF-8"?>
<svg xmlns="http://www.w3.org/2000/svg" width="232" height="83" viewBox="0 0 232 83" fill="none">
  <mask id="mask0_656_2902" style="mask-type:luminance" maskUnits="userSpaceOnUse" x="0" y="1" width="232" height="81">
    <path d="M232 1.10718H0V81.6511H232V1.10718Z" fill="white"></path>
  </mask>
  <g mask="url(#mask0_656_2902)">
    <path d="M95.0625 33.4526H102.676C104.66 33.4526 106.376 33.8263 107.877 34.6269C109.378 35.4275 110.558 36.4951 111.416 37.9362C112.274 39.324 112.649 40.9252 112.649 42.74C112.649 44.5548 112.22 46.156 111.416 47.5438C110.558 48.9316 109.432 50.0525 107.877 50.8531C106.376 51.6537 104.606 52.0274 102.676 52.0274H95.0625V33.4526ZM102.569 50.266C104.177 50.266 105.625 49.9457 106.858 49.3052C108.091 48.6647 109.056 47.7573 109.7 46.6364C110.397 45.5155 110.719 44.1811 110.719 42.6866C110.719 41.1921 110.397 39.9111 109.7 38.7368C109.003 37.6159 108.091 36.7086 106.858 36.068C105.625 35.4275 104.177 35.1073 102.569 35.1073H97.0463V50.266H102.569Z" fill="#575756"></path>
  </g>
  <mask id="mask1_656_2902" style="mask-type:luminance" maskUnits="userSpaceOnUse" x="0" y="1" width="232" height="81">
    <path d="M232 1.10718H0V81.6511H232V1.10718Z" fill="white"></path>
  </mask>
  <g mask="url(#mask1_656_2902)">
    <path d="M128.842 45.6224H117.099C117.207 47.0635 117.743 48.2378 118.762 49.1452C119.78 50.0526 121.067 50.4796 122.622 50.4796C123.48 50.4796 124.284 50.3194 125.035 49.9992C125.785 49.6789 126.375 49.2519 126.911 48.6114L127.984 49.8391C127.34 50.5863 126.59 51.1734 125.678 51.5471C124.767 51.9207 123.694 52.1342 122.622 52.1342C121.174 52.1342 119.888 51.814 118.815 51.2268C117.689 50.6397 116.831 49.7857 116.242 48.7182C115.598 47.6506 115.33 46.423 115.33 45.0352C115.33 43.6475 115.652 42.4732 116.242 41.3523C116.831 40.2848 117.636 39.4308 118.708 38.8437C119.727 38.2565 120.906 37.9363 122.193 37.9363C123.48 37.9363 124.659 38.2565 125.678 38.8437C126.697 39.4308 127.501 40.2848 128.091 41.3523C128.681 42.4198 128.949 43.6475 128.949 45.0352L128.842 45.6224ZM118.708 40.8186C117.796 41.6726 117.26 42.7935 117.153 44.1812H127.072C126.965 42.7935 126.429 41.6726 125.517 40.8186C124.606 39.9646 123.48 39.5375 122.086 39.5375C120.745 39.5375 119.619 39.9646 118.708 40.8186Z" fill="#575756"></path>
  </g>
  <mask id="mask2_656_2902" style="mask-type:luminance" maskUnits="userSpaceOnUse" x="0" y="1" width="232" height="81">
    <path d="M232 1.10718H0V81.6511H232V1.10718Z" fill="white"></path>
  </mask>
  <g mask="url(#mask2_656_2902)">
    <path d="M133.237 51.6538C132.218 51.3336 131.36 50.9066 130.824 50.4262L131.682 48.9317C132.272 49.412 133.023 49.7857 133.88 50.0526C134.792 50.3194 135.703 50.4796 136.668 50.4796C137.955 50.4796 138.867 50.2661 139.51 49.8924C140.1 49.5188 140.422 48.9317 140.422 48.1844C140.422 47.6506 140.261 47.277 139.939 46.9568C139.617 46.6899 139.188 46.423 138.652 46.3163C138.116 46.1561 137.473 45.996 136.615 45.8893C135.489 45.6758 134.577 45.4622 133.88 45.2487C133.183 45.0352 132.594 44.6616 132.111 44.1279C131.628 43.5941 131.36 42.8468 131.36 41.9395C131.36 40.7652 131.843 39.8044 132.808 39.0572C133.773 38.3099 135.167 37.9363 136.883 37.9363C137.794 37.9363 138.706 38.043 139.617 38.3099C140.529 38.5768 141.279 38.8437 141.869 39.2707L141.065 40.7652C139.885 39.9646 138.545 39.5909 136.937 39.5909C135.703 39.5909 134.792 39.8044 134.202 40.2314C133.612 40.6584 133.291 41.1922 133.291 41.8861C133.291 42.4198 133.451 42.8468 133.827 43.1671C134.148 43.4873 134.577 43.7009 135.114 43.861C135.65 44.0211 136.347 44.1812 137.258 44.3414C138.384 44.5549 139.296 44.7684 139.939 44.9819C140.636 45.1954 141.172 45.569 141.655 46.0494C142.137 46.5831 142.352 47.277 142.352 48.1844C142.352 49.412 141.816 50.3728 140.797 51.0667C139.778 51.7606 138.384 52.1342 136.561 52.1342C135.382 52.1342 134.256 51.9741 133.237 51.6538Z" fill="#575756"></path>
  </g>
  <mask id="mask3_656_2902" style="mask-type:luminance" maskUnits="userSpaceOnUse" x="0" y="1" width="232" height="81">
    <path d="M232 1.10718H0V81.6511H232V1.10718Z" fill="white"></path>
  </mask>
  <g mask="url(#mask3_656_2902)">
    <path d="M150.986 44.9823L147.662 48.0247V51.9745H145.785V32.3323H147.662V45.6762L156.026 38.0435H158.385L152.38 43.7547L158.921 51.9745H156.616L150.986 44.9823Z" fill="#575756"></path>
  </g>
  <mask id="mask4_656_2902" style="mask-type:luminance" maskUnits="userSpaceOnUse" x="0" y="1" width="232" height="81">
    <path d="M232 1.10718H0V81.6511H232V1.10718Z" fill="white"></path>
  </mask>
  <g mask="url(#mask4_656_2902)">
    <path d="M161.334 33.4526H169.805C171.843 33.4526 173.612 33.8263 175.167 34.6269C176.722 35.3742 177.902 36.4951 178.813 37.8828C179.671 39.2706 180.1 40.9252 180.1 42.74C180.1 44.6082 179.671 46.2094 178.813 47.5972C177.955 48.985 176.722 50.0525 175.167 50.8531C173.612 51.6004 171.843 52.0274 169.805 52.0274H161.334V33.4526ZM169.591 48.4512C171.468 48.4512 172.969 47.9174 174.041 46.9033C175.167 45.8892 175.703 44.448 175.703 42.6866C175.703 40.9252 175.167 39.5375 174.041 38.47C172.915 37.4558 171.468 36.9221 169.591 36.9221H165.677V48.4512H169.591Z" fill="#575756"></path>
  </g>
  <mask id="mask5_656_2902" style="mask-type:luminance" maskUnits="userSpaceOnUse" x="0" y="1" width="232" height="81">
    <path d="M232 1.10718H0V81.6511H232V1.10718Z" fill="white"></path>
  </mask>
  <g mask="url(#mask5_656_2902)">
    <path d="M189.052 38.0433C189.91 37.6696 190.875 37.5095 191.947 37.5095V41.3526C191.465 41.2992 191.197 41.2992 191.036 41.2992C189.856 41.2992 188.891 41.6194 188.248 42.3133C187.551 42.9538 187.229 43.968 187.229 45.3024V52.0277H183.047V37.723H187.015V39.5912C187.551 38.8973 188.194 38.4169 189.052 38.0433Z" fill="#575756"></path>
  </g>
  <mask id="mask6_656_2902" style="mask-type:luminance" maskUnits="userSpaceOnUse" x="0" y="1" width="232" height="81">
    <path d="M232 1.10718H0V81.6511H232V1.10718Z" fill="white"></path>
  </mask>
  <g mask="url(#mask6_656_2902)">
    <path d="M194.629 35.0545C194.146 34.6275 193.932 34.0404 193.932 33.3999C193.932 32.7594 194.146 32.1722 194.629 31.7452C195.111 31.3182 195.755 31.1047 196.505 31.1047C197.256 31.1047 197.899 31.3182 198.382 31.7452C198.864 32.1722 199.079 32.706 199.079 33.3465C199.079 34.0404 198.864 34.6275 198.382 35.0545C197.899 35.4815 197.256 35.7484 196.505 35.7484C195.755 35.7484 195.111 35.5349 194.629 35.0545ZM194.414 37.7233H198.596V51.9746H194.414V37.7233Z" fill="#575756"></path>
  </g>
  <mask id="mask7_656_2902" style="mask-type:luminance" maskUnits="userSpaceOnUse" x="0" y="1" width="232" height="81">
    <path d="M232 1.10718H0V81.6511H232V1.10718Z" fill="white"></path>
  </mask>
  <g mask="url(#mask7_656_2902)">
    <path d="M216.666 37.7229L210.607 51.9742H206.318L200.312 37.7229H204.602L208.569 47.4373L212.698 37.7229H216.666Z" fill="#575756"></path>
  </g>
  <mask id="mask8_656_2902" style="mask-type:luminance" maskUnits="userSpaceOnUse" x="0" y="1" width="232" height="81">
    <path d="M232 1.10718H0V81.6511H232V1.10718Z" fill="white"></path>
  </mask>
  <g mask="url(#mask8_656_2902)">
    <path d="M231.946 46.05H221.116C221.33 46.9574 221.759 47.6513 222.51 48.1317C223.26 48.6654 224.118 48.8789 225.244 48.8789C225.995 48.8789 226.638 48.7722 227.228 48.5587C227.818 48.3452 228.354 47.9716 228.837 47.4912L231.035 49.8931C229.694 51.441 227.711 52.1882 225.137 52.1882C223.528 52.1882 222.081 51.868 220.848 51.2275C219.614 50.587 218.649 49.7329 217.952 48.6121C217.255 47.4912 216.934 46.2102 216.934 44.8224C216.934 43.4346 217.255 42.1536 217.952 41.0327C218.596 39.9118 219.507 39.0578 220.687 38.4173C221.866 37.7768 223.153 37.4565 224.601 37.4565C225.995 37.4565 227.282 37.7768 228.408 38.3639C229.534 38.9511 230.445 39.8051 231.088 40.926C231.732 42.0469 232.054 43.3279 232.054 44.8224C232 44.9825 232 45.3561 231.946 46.05ZM222.188 41.4597C221.545 41.9935 221.169 42.7407 221.008 43.6481H228.086C227.925 42.7407 227.55 42.0468 226.906 41.5131C226.263 40.9793 225.459 40.7125 224.547 40.7125C223.636 40.6591 222.831 40.926 222.188 41.4597Z" fill="#575756"></path>
  </g>
  <mask id="mask9_656_2902" style="mask-type:luminance" maskUnits="userSpaceOnUse" x="0" y="56" width="30" height="26">
    <path d="M0 64.6776L29.4893 81.6511V64.6776L14.7446 56.1909L0 64.6776Z" fill="white"></path>
  </mask>
  <g mask="url(#mask9_656_2902)">
    <path d="M29.4893 56.1909H0V81.6511H29.4893V56.1909Z" fill="url(#paint0_linear_656_2902)"></path>
  </g>
  <mask id="mask10_656_2902" style="mask-type:luminance" maskUnits="userSpaceOnUse" x="0" y="13" width="30" height="27">
    <path d="M0 30.784L14.7446 39.2707L29.4893 30.784V13.8105L0 30.784Z" fill="white"></path>
  </mask>
  <g mask="url(#mask10_656_2902)">
    <path d="M29.4893 13.8105H0V39.2707H29.4893V13.8105Z" fill="url(#paint1_linear_656_2902)"></path>
  </g>
  <mask id="mask11_656_2902" style="mask-type:luminance" maskUnits="userSpaceOnUse" x="0" y="30" width="15" height="35">
    <path d="M0 47.7576V64.6777L14.7446 56.191V39.2709L0 30.7842V47.7576Z" fill="white"></path>
  </mask>
  <g mask="url(#mask11_656_2902)">
    <path d="M14.7446 30.7842H0V64.6777H14.7446V30.7842Z" fill="url(#paint2_linear_656_2902)"></path>
  </g>
  <mask id="mask12_656_2902" style="mask-type:luminance" maskUnits="userSpaceOnUse" x="29" y="13" width="16" height="69">
    <path d="M29.4883 81.651L44.2329 73.1643V22.2973L29.4883 13.8105V81.651Z" fill="white"></path>
  </mask>
  <g mask="url(#mask12_656_2902)">
    <path d="M44.2329 13.8105H29.4883V81.651H44.2329V13.8105Z" fill="url(#paint3_linear_656_2902)"></path>
  </g>
  <mask id="mask13_656_2902" style="mask-type:luminance" maskUnits="userSpaceOnUse" x="51" y="43" width="31" height="26">
    <path d="M51.6328 51.9743V68.9477L81.1221 51.9743L66.3774 43.4875L51.6328 51.9743Z" fill="white"></path>
  </mask>
  <g mask="url(#mask13_656_2902)">
    <path d="M81.1221 43.4875H51.6328V68.9477H81.1221V43.4875Z" fill="url(#paint4_linear_656_2902)"></path>
  </g>
  <mask id="mask14_656_2902" style="mask-type:luminance" maskUnits="userSpaceOnUse" x="51" y="1" width="31" height="26">
    <path d="M51.6328 1.10718V18.0806L66.3774 26.5674L81.1221 18.0806L51.6328 1.10718Z" fill="white"></path>
  </mask>
  <g mask="url(#mask14_656_2902)">
    <path d="M81.1221 1.10718H51.6328V26.5674H81.1221V1.10718Z" fill="url(#paint5_linear_656_2902)"></path>
  </g>
  <mask id="mask15_656_2902" style="mask-type:luminance" maskUnits="userSpaceOnUse" x="66" y="18" width="16" height="34">
    <path d="M66.377 26.5675V43.4876L81.1216 51.9744V35.0009V18.0808L66.377 26.5675Z" fill="white"></path>
  </mask>
  <g mask="url(#mask15_656_2902)">
    <path d="M81.1216 18.0808H66.377V51.9744H81.1216V18.0808Z" fill="url(#paint6_linear_656_2902)"></path>
  </g>
  <mask id="mask16_656_2902" style="mask-type:luminance" maskUnits="userSpaceOnUse" x="36" y="1" width="16" height="68">
    <path d="M51.6333 1.10718L36.8887 9.59391V60.4609L51.6333 68.9476V1.10718Z" fill="white"></path>
  </mask>
  <g mask="url(#mask16_656_2902)">
    <path d="M51.6333 1.10718H36.8887V68.9476H51.6333V1.10718Z" fill="url(#paint7_linear_656_2902)"></path>
  </g>
  <defs>
    <linearGradient id="paint0_linear_656_2902" x1="29.5016" y1="68.9289" x2="0" y2="68.9289" gradientUnits="userSpaceOnUse">
      <stop stop-color="#3DA2DB"></stop>
      <stop offset="1" stop-color="#3BBEEF"></stop>
    </linearGradient>
    <linearGradient id="paint1_linear_656_2902" x1="29.5016" y1="26.5384" x2="0" y2="26.5384" gradientUnits="userSpaceOnUse">
      <stop stop-color="#3DA2DB"></stop>
      <stop offset="1" stop-color="#3BBEEF"></stop>
    </linearGradient>
    <linearGradient id="paint2_linear_656_2902" x1="14.7505" y1="47.739" x2="0" y2="47.739" gradientUnits="userSpaceOnUse">
      <stop stop-color="#3DA2DB"></stop>
      <stop offset="1" stop-color="#005CA8"></stop>
    </linearGradient>
    <linearGradient id="paint3_linear_656_2902" x1="44.2517" y1="47.7388" x2="29.5007" y2="47.7388" gradientUnits="userSpaceOnUse">
      <stop stop-color="#3DA2DB"></stop>
      <stop offset="1" stop-color="#005CA8"></stop>
    </linearGradient>
    <linearGradient id="paint4_linear_656_2902" x1="51.6275" y1="56.217" x2="81.1292" y2="56.217" gradientUnits="userSpaceOnUse">
      <stop stop-color="#F49D18"></stop>
      <stop offset="1" stop-color="#E74E0F"></stop>
    </linearGradient>
    <linearGradient id="paint5_linear_656_2902" x1="51.6275" y1="13.827" x2="81.1292" y2="13.827" gradientUnits="userSpaceOnUse">
      <stop stop-color="#F49B00"></stop>
      <stop offset="1" stop-color="#E74E0F"></stop>
    </linearGradient>
    <linearGradient id="paint6_linear_656_2902" x1="66.378" y1="35.0209" x2="81.1288" y2="35.0209" gradientUnits="userSpaceOnUse">
      <stop stop-color="#F49C18"></stop>
      <stop offset="1" stop-color="#E74E0F"></stop>
    </linearGradient>
    <linearGradient id="paint7_linear_656_2902" x1="36.8774" y1="35.0207" x2="51.6281" y2="35.0207" gradientUnits="userSpaceOnUse">
      <stop stop-color="#F49B00"></stop>
      <stop offset="1" stop-color="#E74E0F"></stop>
    </linearGradient>
  </defs>
</svg>
